/* XPM */
static char *_87476a3ac344bf8fef407a486e44e14bQZxhWq6ahWWA2es[] = {
/* columns rows colors chars-per-pixel */
"64 64 154 2 ",
"   c #020404",
".  c #090305",
"X  c #030907",
"o  c #050608",
"O  c #0A0609",
"+  c #050B0A",
"@  c #0A0C0C",
"#  c #11040B",
"$  c #110B0D",
"%  c #05110E",
"&  c #0B110F",
"*  c #0D0F10",
"=  c #120E11",
"-  c #061311",
";  c #0C1413",
":  c #061915",
">  c #0D1916",
",  c #0E1C19",
"<  c #121515",
"1  c #1A1617",
"2  c #121917",
"3  c #141719",
"4  c #191418",
"5  c #131C1A",
"6  c #1A1D1D",
"7  c #221E1F",
"8  c #0D201B",
"9  c #15211E",
"0  c #19221F",
"q  c #161E20",
"w  c #1D1F20",
"e  c #0F2920",
"r  c #162421",
"t  c #1B2422",
"y  c #152923",
"u  c #1C2926",
"i  c #162E29",
"p  c #1D2D29",
"a  c #16322A",
"s  c #1E322C",
"d  c #1F3630",
"f  c #1F3932",
"g  c #212525",
"h  c #212A27",
"j  c #242728",
"k  c #222D2A",
"l  c #292E2E",
"z  c #23322E",
"x  c #29322F",
"c  c #243531",
"v  c #2A3533",
"b  c #253A34",
"n  c #293835",
"m  c #293936",
"M  c #2A3936",
"N  c #283B37",
"B  c #2C3834",
"V  c #2E3A36",
"C  c #2C3D37",
"Z  c #2A3A36",
"A  c #263E38",
"S  c #2A3D39",
"D  c #2C3C39",
"F  c #2E3D38",
"G  c #2E3F39",
"H  c #2D3D3A",
"J  c #2E3E3B",
"K  c #2F3E3B",
"L  c #2C3D39",
"P  c #313534",
"I  c #313A37",
"U  c #303A39",
"Y  c #373938",
"T  c #323D39",
"R  c #323C3B",
"E  c #323E3C",
"W  c #323D3B",
"Q  c #264037",
"!  c #264139",
"~  c #29403A",
"^  c #2B403B",
"/  c #2A413B",
"(  c #2D403A",
")  c #2A443B",
"_  c #2D403C",
"`  c #2E413D",
"'  c #2D423D",
"]  c #2C433D",
"[  c #2B443E",
"{  c #2B463F",
"}  c #2F443F",
"|  c #2E453F",
" . c #2C433C",
".. c #2E483F",
"X. c #30403D",
"o. c #31403D",
"O. c #32413C",
"+. c #30433D",
"@. c #31413E",
"#. c #32423F",
"$. c #33423F",
"%. c #34433E",
"&. c #35413D",
"*. c #31443E",
"=. c #31433E",
"-. c #2E4741",
";. c #2E4640",
":. c #2F4A43",
">. c #2E4A42",
",. c #334340",
"<. c #364240",
"1. c #314440",
"2. c #304540",
"3. c #324541",
"4. c #314641",
"5. c #304741",
"6. c #334642",
"7. c #324742",
"8. c #344441",
"9. c #354441",
"0. c #344743",
"q. c #334541",
"w. c #394542",
"e. c #314842",
"r. c #304943",
"t. c #324943",
"y. c #314B42",
"u. c #334A44",
"i. c #354A45",
"p. c #344B45",
"a. c #364B46",
"s. c #314C45",
"d. c #334C46",
"f. c #334E47",
"g. c #344D47",
"h. c #334B44",
"j. c #3A4D47",
"k. c #394E47",
"l. c #394B46",
"z. c #364F49",
"x. c #354E48",
"c. c #3C4B48",
"v. c #3A4E49",
"b. c #2C5145",
"n. c #345047",
"m. c #355049",
"M. c #35534B",
"N. c #37524B",
"B. c #36514A",
"V. c #3A514B",
"C. c #3B504B",
"Z. c #3D534D",
"A. c #3A524C",
"S. c #3C5750",
/* pixels */
"  @ 5 9 9 r 5 +     O   . o   < 3 + X @ . . o ; r 9 5 r + @       o     O 6 * + X . #   @ , r 6 r 5 @     o .   X   < 3 + o o . ",
"> J 2.N o.R j 6 r > % ; 5 5 r o.Y < ;   X & p y.S J J n r r 5 ; * 5 5 , c c.6 t % X @ 5 n { / J E p r r ; ; > ; 2 5 &.V 5 2   o ",
", S 2.` o.k u o.M.{ N N 2.u.y.V.k p &.k u 5 s ) o.2.c u s 2.y.N c ` d.>.d.2.8 n c p 9 9 / -.` 0.k u b V.y.s c u.k.o.k.z u J k r ",
"< g k r , u / M.d.g.y.| 0.,.c u e N ( z ; X t h p , , c C.Z.z.M.>.y.` o.p r s u.U g * + t j r 3 r 0.Z.d.d.y.| u.%.c u y J o.V ; ",
"  O @     r o.` c c z u 6 > 5 9 c C 0 3 X   @ @ +   @ k <.n p c s u ; 6 3 t R p 6 +   o * @ o   9 J o.s c n p 6 ; 5 5 v R r 2 X ",
"5 ; > 5 < < 3 w g g 6 ; + @ w j j 3 o X 5 5 > > < 3 < ; 5 j j r < * + > u k t @ + ; r 5 > - 5 > 5 > r j g 3 * o ; g t h ; X X 2 ",
",.u.g.u.J g < @ + + X + + @ ; ; & @ 3 t c.V.%.h.l.o.z r @ + o o @ + @ + > ; + < > n z.y.u.g.z.S r > ; @ X X @ X X ; < ; % 5 r w.",
"J S { :.d.o.p - 5 ; 6 V F p u r y n k p %.) / N :.z.2.n ; < 3 1 z n n t t u s S 5 o.u.A / ` u.y.0.k ; ; 3 t c K k 0 r r V u p %.",
"s s s z z R r 9 >.:.V.z.Z.g.y.| o.0 @ < k z p p c s c c 2 n y.b.A.N.M.>.y.%.v < + h k z z u z z R 0 6 a.y.n.M.Z.d.u.o.E g + > z ",
"u u u z t 5 X X n o.v.u.d.M.g.c 2     o < 9 u k t k u ;   t J V.g.V.M.Z.o.u X     + ; u k k k t 5 X X v h.g.g.g.A.u.z > X X X ; ",
"@ @ @ & @       @ g &.| ! ! c 9 + ; 0 ; + @ & @ @ @ + X   @ 3 v N S n F p ; + 6 r & @ @ @ @ @ +   o o ; u N ( n C c r + ; r ; @ ",
"@ ; < % ; 2 u u X X @ 9 s u 2 + ; c h.( r < + & 2 & ; 9 h &   @ 5 j x 6 % + u 0.%.p 9 ; & 2 ; ; 2 j 6     ; u z h ; + > n a.F u ",
"5 k c.%.( %.g.h.s 2   o 3 < & 6 O.k.>.M.N j 5 w.w.o.%.y.k.N r X   @ 3 * < z z.d.A.| z 5 k w.o.%.%.C.h.p 5     ; 6 & 9 o.g.u.a.S ",
"r r C c s b ! y.y.z & .     X t o.| a c z u ; V z c c b ..y.o.9 @       @ n %.s s c z 9 u J c c c / h.h.V @   o     r w.n p b c ",
"; + 6 k z s s s z 5       + X X 5 r 0 g u t + @ p k k z c s r @   X + +   ; r t r t t ; & 9 r z p z c u <       + X @ 6 r t u r ",
".   o < 2 2 u h <     6 t k r @ X o O .   X   . @ 3 3 0 h 9 @   - r c t 5 X o o @ . O     + ; 2 3 u u >     3 u c q @   o O   o ",
"r u 5 X @ X + * . o 9 / d.:.-./ l X 5 5 u 9 u r ;     @ @   . $ c 2.-.d./ N 5 @ 5 9 y y r 5   O + @ @ X   r | { u.| / c @ @ r r ",
"Z.u.V ; + k r > @ X ; g k p k n k ; r S z.Z.z.2.g X r k ; & + + 5 k k c v v 5 < z 0.V.V.2.R 3 @ k r ; X @ < t l z n c u ; r K z.",
"s c p 5 9 V v.n p 5 @ @ @ * < 6 % 9 c -.N b c z r 9 u 0.w.s 9 > o @ @ ; 6 3 ; j / / A b s u 9 r S a.o.p 5 + o * % ; 6 < , s | b ",
"t 5 ; j n > z a.u.u.n r ; ; @ X @ j J b s y u 5 < U r 9 o.l.z.` j 5 ; @ +   ; E ` s p u r ; r v ; k 0.z.u.S y % ; * O X z | b p ",
"3 < o @ + +   ; p E ,.S n V t ; o 3 j j j 6 < o @ @ X   @ 9 z 0.0.c B k 6 ; ; r k j t 3 @ o * ; o X ; p S 2.` b n 6 1 @ 5 u k j ",
"@ o X ; ; ; @ + O * ; > , ; + o @ @ < 3 < +   X + @ ; ; X + ; ; > ; 6 ;   o O < < 1 * @   @ + + @ @ X + ; < < 3 ; @ X X < 3 * < ",
"+ r k p k u h ; + @ + + + X ; z k & X     X ; k p p u j 6 @ @ + + + X + 9 V 3 *     X @ r k u k k t ; + + o o @ X - z k @ o o X ",
"9 O.V.e.u.2.0 z N p 5 t v c b z.n 9 u ; 2 2 c k.u.| a.z r B c r r k z c 2.z.r p 3 ; 9 , u.z.y.u.J u p V k 9 u c v n g.` 9 t 5 - ",
"; v v x j r s y.M.n.{ y.z.V.u.S 0 J ..N 0 < r b z s r y Q N.Z.w.>.{ A.V.` s y u.) z ; > z N z k 6 k g.M.V.%.o.C.V.y.N y c y.N t ",
"O 3 2 ; + r 0.M./ ` S n z u r > z N N 0 @ O < 5 6 @ < T k.y./ / N c k u 5 r n J z 3 o O < 3 & o t 0.M.b / J c z u r 5 k O.n 0 + ",
"o @ X + + ; u c k k t 6 ; < t j C r > + X @ o X o   @ 6 k z z p t 6 * 3 t l B 6 & X o @ X X @ O > u c z k h r % ; 0 g P h ; X X ",
"z c s c k 6 @ < 6 5 + X X X ; 1 2 + O 3 z N z c z n h @ ; < 3 < o X   @ r 6 @ + + 0 v c s s z z 5 @ ; 6 3 @ &   + 3 t 3 X + ; v ",
"z.d.V.A./ c 6   X X + 5 r 5 5 5 > t g x g.n.>.h.n.>./ p ; X o X , 6 5 > > > 5 z r 0.Z.d.d.V.n.g.v 0 X o + + < 5 > % 2 2 r t z w.",
"p z c A / y.c 6 c n J u.u.` n z ! n 9 r N c z k / / / 0.> k c z 2.g.2.` c n o.z ; x n p s n n N h.z 9 z c / h.C.( c c J V 5 y c ",
"z x j k c p % ; 0.z.A.A.M.z.u.` p ;   + 0 k k k t z k t X x k.n.A.A.V.V.2.n r   o 3 u k k k k k p ; 5 o.y.M.M.n.V.k.N k ;   @ 9 ",
"9 5 6 6 < @   . y S y.:.d.d.` s $   @ @ o ; 5 5 6 0 ;     ; k y.u.{ z.2.n 9   @ @ X % 5 5 3 5 8 @   o 0 N n.| h.y.| s @   = @ X ",
"@ o   o + X ; @ . @ h z c z r ; @ r n t 1 $   @ X X X @ 2   o g s z v l 3 + 2 z V 5 ; @   @ o X o 3 @   < u s s z g @ @ r n p 5 ",
"; r n z k z K J ; + X ; t 0 & < s >.S.u.z 0 ; p v k k c ( y %   % 9 t 2 % , N g.V.o.u ; 9 v p z s | c > X o 3 g r + ; z ` M.z.c ",
"r k z./ A / g.g.( r o . O O @ j y.{ ! { c p 9 2.( ( ( h.N.p.n ;   O O X > C g.) N ` z r c l.` | / n.n.O.t @   o @ X k v.2.b | N ",
"5 ; k p c s b N | u @ .       ; V c u c k t ; t s z s s c N n 5 . . .   @ g v u s z k 9 > k s i z c N ( u +         < k v k k j ",
"@ o < 9 j u k k 0 +   + ; 5 %   o * < < ; @   O 9 u t k z p 2     & 5 ; X   @ 3 ; @ * @   ; t j u k k r +   @ 3 3 ; + + @ < * 3 ",
"o o @ + + * 6 3 @   ; z N | n u < @ + @ - @ @ @ + X + 2 > &     9 c | ( z 9 @ o o * * < @ @   @ @ 3 < +   ; z n a.b r , + @ @ @ ",
",.E v ;   ; ; X     6 V O./ C R k ; ; v ` / S n 3 X + ; X X o < z N N Q %.C 0 @ r F J o.o.k * @ @ < o   X 0 n ) S A ` c ; > c / ",
">.! n 5 5 <.n u ; + @ @ 5 9 0 k 5 2 r 0.| :.>./ h & k w.k 9 + @ O 1 6 9 u 0 2 3 c z.>.{ / c 6 ; ) N y 2 @ o @ 5 r u k 3 3 g ,.>.",
"h 0 9 u h h a.k.o.c r ; X o @ O X u  .Q s p p r 3 x 9 b z.g./ i ; + o o @ @ ; c h.s s u u 5 u p u 0.z./ c r @ @ o o o & r o.J k ",
"6 ; + 6 j + + k ` u.0.n k j 6 ; o t n z u u 5 & ; h 3 @ 6 c z.g.| z u g < X ; B z k k 0 ; @ 3 h @ ; p u.z.y.N p y 9 & X t v c y ",
"@ + X   o   X @ > u z k k u 5 @ O < t t 1 3 o   X X   o @ + 5 z p p u u ; + + 3 r r 2 @ + o o   X X + ; r z z p u 5 @   < 9 u y ",
"o X 5 5 > 3 < X   o X + + X + < 3 X + @ @ o X ; 6 5 5 , + + o O . @ o X @ t @ + X @ +   @ ; 2 6 5 3 @ o @ @ o o X   < 6 + + o . ",
"; V h.N J R u r r 3 ; ; ; > r E R 5 ;   + @ u 0.E K J b r 9 ; ; * < 5 , k c.9 6 X X @ 2 O.%.( c &.u 6 r ; @ < 6 2 9 T V > > o   ",
"2 V ` %.%.s 9 / u.` b S u.u.y.u.u z ( z t 5 z o.` ` N r p 0.k.N c ! d.g.u.,.r R v t 6 5 J / | | k p N g.2.f b >.n.h.a.p z C p r ",
"< k u 9 ; y %.M.M.u.-.-.u.2.b u r C J k ; + 6 u u > 5 c v.z.z.u.{ { -./ s u p w.J 0 @ & k p 0 2 6 o.Z.z.M.:./ y./ c p r J o.z 9 ",
"  @ X @   5 o.| c c c k 5 ; 3 6 v R r 5     @ + O o + c | S c n k u 3 2 5 u n z , %   . + +   . r J o.c s c k 1 3 3 2 n n t < . ",
"5 ; , , ; ; 3 7 u h 6 < O @ t p z ; @ + 5 r > 5 > > ; ; 6 g j r , + o 6 g c t * O ; r , ; 3 5 ; 2 ; r j u 5 <   < 6 p z < o @ < ",
"2.u.2.g.J p 2 X @ o   X + + < = + ; 1 j 0.d.>.u.u.0.z 6 @ + X + X @ @ @ ; - @ ; 5 b M.:.d.z.y.{ r ; @ o O o X @ O < ; @ ; 5 p y.",
"A / / u.y.` y ; < 5 u b b p t t s z j p 2.| ` S M.u.o.U < < ; , k V B r r r v <.9 o.y.A / | 2.>.0.k < ; 2 r z J k t r t F p s >.",
"p p c c c o.r r u.>.y.z.A.M.u.{ J u > > z c z j a s b V > c z.>.Z.g.z.g.u.0.v ; @ u k k z z c c U 5 0 u.d.M.A.N.d.-.0.E j + > c ",
"j t k t r t   @ c y.A.M.M.A.>.f 6     X 5 r u p p k j ;   9 2.u.M.d.M.A.b r @     @ 5 u k u p u 6   + b y.z.N.N.n.d.c 5 X X @ * ",
"@ @ @ + @ X     @ u J A S J z t o ; t > X @ + & @ @ O   @ X 5 V / | A / k ; + 6 9 ; O @ @ + ; @   @ o = g U S ! n V 6 + - r > @ ",
"X & ; ; , , p u o + ; 9 k k < @ : N g.J r 1 @ < < ; ; 9 z @   @ 5 p k r ; @ r 2.0.l 6 @ * < ; ; , k w   o 2 r u j 3 + > n g.N y ",
"9 p a.` -.| z.u.u &   X < < % 9 o.z.-.z.K r 5 %.u./ { >.V.J r X   * 6 * < z z.:.b.>.z 9 s y.| 2.2.d.d.s :   + 3 2 @ t o.d.d.z.J ",
"9 y 0.z z c 0.%.g.c @   .   X r >.S s c z p > F n z c A >.y.` 9         ; n 2.d c z z 9 u <.c c c 2.( k.V +       X 9 u.N s c s ",
"< o 3 k z z u z h <     @ o X + 6 r t t t w @ * j v p z z k j + o o o X X ; 6 r r r r ; + 9 j z p z z z 2   o @ o o o 6 r t t t ",
"    @ < 3 2 k k 1   X 9 u k t + O   @ o o @     @ 3 ; t l 6 O . @ r k j > X X @ X o X X   + < 6 5 r u ;   + 6 r k 6 + + o o o   ",
"y r 5 + o o @ X     9 / ..y.w.V l ; ; 9 r r r u * X X + X @   O c 0.u.2.2.n 9 X 5 t r r p 3     X @ @ X X 9 J | A.` n j ; ; r u ",
"n.h.n ; + x 0 & X + 2 u p p z c t ; 9 ` z.V.g.u.j X 5 z ; @ + @ , k z z c k 6 ; k u.Z.2.a.R 5 * g t + X + & y z s c N p ; 9 / d.",
"z v t 5 r n a.| h 5 @   @ ; ; 5 ; 9 v o.n n c p 9 9 u w.w.z 9 : * o X ; 6 3 < j ` N ` c p u 5 5 J k.S p 6 @ + X + 5 3 @ 6 n ` ! ",
"t 3 < k V % z o.a.a.n 9 < ; @ @ @ j E n p u t 3 2 I t 5 R a.z.` t > 5 ; @   * U ` p u u r 2 h v % z h.u.&.v r ; ; * @ o g E n p ",
"6 + + + & X o 3 a { :.{ / n t ; + 5 p y s 9 > + @ @ +   @ 9 S u.u.A K p 5 ; % u p z t 2 ;   @ ; O   > s ( p.{ / F 5 ; - 5 p p u "
};
