/* XPM */
static char *bdd7e70abf844818bf072fafc911f5160aLd09b10dOhsgxC[] = {
/* columns rows colors chars-per-pixel */
"64 64 138 2 ",
"   c #0B151E",
".  c #0F1922",
"X  c #121D24",
"o  c #141E28",
"O  c #162126",
"+  c #182327",
"@  c #172129",
"#  c #1A252C",
"$  c #1E292E",
"%  c #1D2731",
"&  c #1F2931",
"*  c #202B2F",
"=  c #222D34",
"-  c #252F39",
";  c #263136",
":  c #283337",
">  c #273139",
",  c #2A343C",
"<  c #2E393E",
"1  c #313C3F",
"2  c #2C3641",
"3  c #2F3941",
"4  c #323D44",
"5  c #353F48",
"6  c #364146",
"7  c #3A4446",
"8  c #3A4547",
"9  c #3B4547",
"0  c #394446",
"q  c #394347",
"w  c #364049",
"e  c #374049",
"r  c #374248",
"t  c #37414A",
"y  c #374149",
"u  c #384148",
"i  c #394249",
"p  c #384349",
"a  c #3A4348",
"s  c #38414A",
"d  c #38424B",
"f  c #39424B",
"g  c #3A434A",
"h  c #394448",
"j  c #3B4449",
"k  c #3A4549",
"l  c #39444A",
"z  c #3B444B",
"x  c #3A454B",
"c  c #3B464A",
"v  c #3C4648",
"b  c #3C4749",
"n  c #3C454A",
"m  c #3D464B",
"M  c #3C474B",
"N  c #38424C",
"B  c #39434C",
"V  c #3A434C",
"C  c #3B434E",
"Z  c #3A444D",
"A  c #3B444D",
"S  c #3B464C",
"D  c #3B454E",
"F  c #3B454F",
"G  c #3C454C",
"H  c #3D464D",
"J  c #3C474D",
"K  c #3E474C",
"L  c #3C454E",
"P  c #3C444F",
"I  c #3C464F",
"U  c #3D464F",
"Y  c #3E474E",
"T  c #3A454B",
"R  c #3E484A",
"E  c #3D484C",
"W  c #3E494D",
"Q  c #3D484E",
"!  c #3E494F",
"~  c #3D484D",
"^  c #3D4550",
"/  c #3C4451",
"(  c #3D4750",
")  c #3E4750",
"_  c #3E4651",
"`  c #3F4752",
"'  c #3F4754",
"]  c #3D4750",
"[  c #3E4851",
"{  c #3F4851",
"}  c #3F4A50",
"|  c #3F4952",
" . c #3F4953",
".. c #3E4952",
"X. c #404B4F",
"o. c #404950",
"O. c #414A51",
"+. c #404853",
"@. c #404A53",
"#. c #414A53",
"$. c #424B52",
"%. c #414954",
"&. c #404855",
"*. c #404A54",
"=. c #414B54",
"-. c #424B54",
";. c #424C55",
":. c #424C56",
">. c #444D56",
",. c #444C57",
"<. c #454E57",
"1. c #424C55",
"2. c #454D58",
"3. c #444E58",
"4. c #464E59",
"5. c #454D5A",
"6. c #474F5A",
"7. c #464E5B",
"8. c #474F5C",
"9. c #444E58",
"0. c #455056",
"q. c #475057",
"w. c #465157",
"e. c #485357",
"r. c #465059",
"t. c #475059",
"y. c #47515A",
"u. c #46505C",
"i. c #46505A",
"p. c #48515A",
"a. c #49515C",
"s. c #48505D",
"d. c #4A545E",
"f. c #4B555E",
"g. c #49535D",
"h. c #4A5161",
"j. c #4C5564",
"k. c #4D5761",
/* pixels */
"' s.5.5.5.,.s.5.f.V > u 4 6 4 6 6 6 u 4 < = y.5.,.p.,.,.5.u.j.> 4 u 4 u 4 4 4 u 6 4 = 4 0.=.y.5.p.5.8.h.=.- a 4 6 4 4 u u u 1 1 ",
"5 U V A A u a a :.r , A l n 0 0 l n n a < $ A a U U a U U U 5.- a U a 0 0 0 a l l u = < [ l U V l a U =.V = a u n 0 l l l n 0 4 ",
"4 a a U U n U n [ V , U l l u u u a U l 4 = a U u n a a u l =.- a A a a n U n n l l = , A a a a 0 0 U @.A , U E l l A a a A l 4 ",
"4 u u n u u u 4 A V , A A ( U @.U U U l 4 = 4 u 4 u a a u U ,., a A ( a l U a u A a ; > a u l n u u a U a , a a V A [ ( l l l u ",
"$ $ $ = + = = = > > & > > > & = > - = = $ X $ * = $ & > = = - o = - < - = > > > = = + + = $ $ # = = - - - % > - , = = > = = = = ",
"> > > - $ 4 V ( U U U [ V V = = > > > , > = , > > # = V U ( =.=.[ U ( 4 $ - = = > , > > , ; = O 4 V ( ( ( U @.( V = & > , > > ; ",
"l A l 3 = a [ @.U U @.=.[ y.> 4 a l a U l a a a l ; > @.[ U U ( @.U =.( - A U U a a U E l A 4 & r ( [ ( ( [ [ U f.4 3 l A l A l ",
"u E n 4 $ u l l U u U a r y.> 5 l U l a a U U l 6 ; ; l a U n u n 5 [ =.= U U u U a l U u A u $ 4 U U a a n l u =.2 4 E l u A A ",
"A U V 5 $ r a A 0 n u l r 0.> 5 E l A A l E l n l > ; l [ a l l u U A @.> l E l V V ( [ A E 4 $ 4 l r l U A U l :.< 4 A U E n l ",
"4 4 3 , + , , < > ; > 2 , 4 % > , 4 4 3 4 4 4 4 < = # > , > < , , 2 , 3 % 2 4 4 4 4 4 < < 4 , # ; , , , , > , > 4 = > 3 3 3 3 3 ",
"+ $ = = + = $ $ = o = 2 , 4 , 3 4 4 4 3 3 + # & = $ # & $ $ $ X , 2 2 3 , 3 4 4 3 4 = O $ = & $ # # $ $ + $ < < 4 , 2 3 4 4 3 5 ",
": 4 u u u l u u u & 4 =.@.:.:.5.,.@.=.5.y.= 3 r u r r u u u 3 $ U @.:.5.5.:.@.=.:.y.5 = 4 u 4 r u u r 4 ; , $.0.=.=.:.=.:.:.=.f.",
"1 l l u n l l E l $ , l l l A l u n U U ,.= r n l U l l l A 4 $ l A l a A l l U V :.5 ; l U a U l l E l ; ; A l l U U a l l l y.",
"< a l l A r a a 0 = : l l l l l 0 n l l $.= 1 l l A l A A l 4 # u l l u 0 l l l a [ 5 = a l A E u u l a ; > l l l l l u l l l e.",
"= 4 u r 4 4 4 4 3 = ; 4 4 4 4 4 u 4 3 5 [ & , u 4 4 4 u u 4 , # 4 4 4 4 4 4 4 4 r a 4 = 3 4 4 4 u 4 u 4 = = 4 4 4 4 4 4 u 4 u [ ",
"+ = = = # % = = = $ # = = & # $ & - = = 2 # % = = $ $ = = = = # = = & $ + & = = = = - + = = = # $ * = = # # = = = # % = = = = , ",
"5.:.y.[ & [ :.:.:.:.:.y.:.s.- / :.=.=.:.y.y.=.,.5.2 , =.:.y.:.:.,.:.y.=.= :.5.:.:.5.:.5.:.5.[ = t 5.:.:.:.y.:.5.y., 5 :.:.5.:.5.",
"U a l u # l U l ( U l l A y.- t U ( ( A A V a U a = ; A A [ U A l r A =.= A r l U V r ( A V r & 4 A r U A A u l :., 4 A a ( V a ",
"l u u 4 # u l l l A a r l y., 5 u r l a V V A A l ; ; l l r a a U A A ,.- ( a U E l u E l r u $ u l u l l l l l :.2 4 V r A a r ",
"A U A 4 $ 4 l E l E E E l @., 4 E E E A E U [ r A = = A E V [ @.A E A a = A A A r A l E l U l $ 4 E A A l l E u =., 4 [ E A l @.",
"- > > = X = - , , > = : = = o # > ; ; ; ; = 3 > > + + - , > , = ; > > & o = , ; > , > , , , > X # > , , > = < > = o # ; ; = = ; ",
"r A V A 5 ( A A A , $ > : : = ; = = : ; ; & r V ( A V V A / ( & ; = ; = = = ; ; - = # , V V ( V A ( V ( 4 # = = > = ; > ; ; : = ",
"V [ U @.[ :.[ ( s.r , r l l l l u u l u < = U @.A @.[ U [ :.y.- u u l l U r u l l u ; 3 @.U U =.E ( ( 5.[ , l l l l l u u 0 l 4 ",
"4 l l l l l u l  .4 , A A l U l n l l u 4 = a V l l l l l l $.> 4 E l a a n l l u u = , E l l A 0 l l [ V > l 0 A l a l l l l u ",
"u l l l E l U l [ u , E l l l l l E r [ < $ a U l E l a [ 5 5., l l ( A U A r a E u ; , A A a A l l l E l , l l A a A l a U l u ",
"> < < < , < < , 4 < > 4 4 5 4 r 4 4 < 4 ; # , < , 3 < , 3 3 V & 4 4 4 4 4 r u r 4 < = = < < < 3 , < < 4 3 = 4 4 u < 4 4 4 4 4 < ",
"# # $ # X > , 2 < , , 3 , , o # * $ $ = # O $ # $ O # > , , 3 > , , , = X $ # # $ $ + # $ # # X - 2 , 2 3 > 3 3 < # # & $ & = $ ",
"u u u 3 # E =.,.@.:.5.y.5.y., 4 u 4 u u 6 u u u u = > $.:.:.=.y.,.5.:.@.> r u u 4 u u u u u < $ V :.=.@.,.[ =.=.y.2 < 5 4 4 u u ",
"l l l 4 # l A A u u u u l ,., u n u n l l n l l l > , A A @.l V a A A ( = l U l l n l l l l 4 $ 4 l l l n n l A y.2 4 [ U A A l ",
"l l l 4 # r l l E E l l l >., 4 l l l l l A l A l ; ; l l U r a l U ( [ > A A a l l l A l A 4 $ 4 l 0 0 0 n l l =., 3 A A l l l ",
"A A u 4 $ < u 4 4 4 4 r r [ > 4 V A a A A a a A a = = r a u u l u u r V > V A a a A V V A A 4 = 4 4 u u 4 u 4 4 ( 3 3 r r V V A ",
"& = & = X # $ # # $ # = & > # = > > = = - & & = = + o $ # # $ + * * = = + - > - > > = % & = & X # + # & + = = = = # & - > > = - ",
"$ < < < < , 1 , , % , u.:.:.:.=.=.:.5.&.s.# ; < < 3 < , 4 , > + A 5.=.:.=.:.=.:.:.u.4 # 2 , 3 2 3 , < 3 $ > :.:.:.:.:.=.:.:.:.s.",
"< l l l l u l l u = , ( V A A l A U ( ( y.= 4 n l l l l [ a 4 = r U A A A A V ( A ,.5 = l l l l E u l u = > U l A A U l l A A y.",
", l l l A l a l l = , A l l l 0 0 u a l :.= 4 E r A A l U a 4 $ u l l l E l u E u $.4 = l l n l 0 u l u ; , n l l l E 0 0 l A e.",
", r l A l l r l u & , r l l 0 0 l l l A :.- 3 a a E U a a l 4 # u u l u l l u l l $.4 = u u l l l l l u ; : u a l u 0 0 l r a 5.",
"# = ; ; $ = = ; > # & - ; ; & ; = = = > , + % = ; = = = = ; = X = > , = & > > > - , = + = - - & = = - = + + = = > & = ; > > - 3 ",
"4 u u 4 = 4 4 u t 4 5 r 4 4 = , r r 5 V A 4 5 V r > = r r 5 r 4 5 5 r 2 = 4 5 5 5 A V 5 r V 5 = 3 5 r V 5 5 A A 5 - , 4 5 5 5 r ",
"@.E @.r = a @.E ( :.@.$.$.y., 5 @.=.[ [ [ [ @.@.[ , > =.@.( @.:.=.[ :.[ > [ @.@.[ [ @.:.U [ V & r [ [ =.@.( [ E u.3 4 =.[ @.:.[ ",
"l a U 4 # u [ a a @.u u l y.> r l U l l l n l a V , - A V A U a U u [ $.= A l l n u l E u A l # 4 l a l l l l l y., 3 E u l E u ",
"l E u u # 4 n l A l U l E @., 4 l r E r l l l U l ; ; E a X.u l V A ( [ - ( A V l A l U l l u # 4 U [ 5 V [ r l :., 3 @.A a E l ",
"4 r 4 < + , 4 4 4 4 4 u 4 4 = , a 4 u 4 u 4 u < 5 & # 4 4 4 4 5 r 5 4 3 $ 4 4 r r a 4 r 5 4 3 # > 4 4 4 5 r u a 4 = > 5 4 4 r 4 ",
"> , , , & > , , 2 = # & $ $ O # $ # $ $ $ # 2 < 2 - = , , 2 2 @ $ $ $ # X $ $ $ % & + = , , > % - , , , = O # # $ o + $ $ $ & # ",
"( :.5.5.5.5.:.:.u.r > 4 4 4 u 4 4 4 4 4 > = [ @.:.s.5.:.:.5.s.- 4 4 u u u u 4 4 4 4 - 4 ,.5.y.5.:.:.:.p.U , u 4 u 4 4 4 4 6 4 < ",
"u a l r A l a l =.r 2 E A u U l l U a A < = U a V A u u A l ,.- r l l l E l l A l 4 * , A l l l V V V :.V ; A l l U A l l n l u ",
"u l n l E l l l  .5 , U l l U l a A l l < = l A l E 0 0 l l y.> u l a l A r l l E u = , l l l l A l A [ V > E l a l l l l A l u ",
"1 4 u u u u u 4 =.5 , r l A l a V U A l < $ 4 l 4 u u u 6 a [ = r ( A [ A A U V r 4 = , u u l u 4 4 r a a , U a ( A A U l l l u ",
"# $ $ $ # = = = - = & > ; = & = = = = = = X # $ = # # = * = , & = > = - & & = = - - + + % $ & # * * ; = - # , = = & & = = = = = ",
", , , ; + ( [ =.=.[ :.:.[ :.& = , , < , ; < , , : # = :.( =.=.=.:./ :.t @ , < , , < , , , < > + 5  .=.=.:.[ =.=.:.= = , < , , , ",
"E n A 4 $ V A V U a A l l 0., 4 u u u E l A l E 0 ; ; [ V ( A U U A 5.=.- l n l a l l l l l 4 $ 5 [ A V A a A A 5.3 4 U l u r a ",
"l l l 4 # u A A E l n l l $., 4 E U l [ A V r l l ; ; U r l r r u l E [ ; A l 0 A A l l A U u $ 4 l u u l l n E :.3 4 l l l l U ",
"U A A u $ 4 l l u u l l E :.3 r a E V V a A U E u : > A l E n l l E U [ > A l l A l l l E U u $ 4 E l l n l u u :.3 3 a U [ U ( ",
"< 2 < ; O = ; = , = > > > , % - < 4 3 3 3 , < < , $ # ; = ; : ; ; , > 2 % 2 , 3 2 4 3 > < , > O = > ; ; ; = , > 2 = - < 3 3 , , ",
"# = = = # = = = = + = 3 5 t 5 t 4 4 4 4 4 + # = = $ $ * $ $ # X , 4 4 5 2 r 5 5 4 4 > + = = = $ $ $ & & + & 4 4 4 2 4 5 4 4 4 V ",
", r u u u l u u 4 = 3 =.:.@.[ [ $.@.:.=.s.= 3 u u u l l l l 3 & [ :.=.:.@.=.[ [ 5.y.r = 4 4 l l l u l u - , =.@.:.[ :.@.U [ :.k.",
", n 0 0 l l u E A = , U l u l l l l [ r ,.= 4 n l l l u l A 4 % u A l u l l l A r =.4 = [ l l a u 6 E l = > U a A a A l l A U 5.",
"< u 0 0 l u 0 0 u = : u E u E l l U a n ,.* 4 a 0 0 u E u 0 1 # l A u l n l l U u $.u ; l u 0 0 n l l u ; ; l l 0 l n 0 0 u l y.",
"= < 4 u 4 4 4 4 < $ ; 3 4 3 3 4 4 4 3 4 V & , 4 4 4 < u 3 4 , # < 4 4 4 4 4 4 < 4 r < $ 3 3 u 4 3 4 4 3 = = 3 4 4 < 4 4 4 4 4 U ",
"% - > - o = - - - % = = = - + & - - = - < % = - > % # > - - = # = > > & + = > = - , - # > - - + & - - - & & - - - # % = - - - 2 ",
"5.y.:.( - A :.:.y.:.5.:.=.y., V 5.,.,.,.5.5.=.5.=.4 3 :.:.:.5.5.,.y.,.[ , [ y.,.:.5.y.:.y.:.( - ( 5.:.:.5.:.:.5.5.4 5 =.:.:.:.:.",
"l A a u # r A l l l U l A ,.= 5 A A U A V U a U l > = l A l A U V U ( =.= A A A A V A A A l u $ 4 U V V ( A A A ,., < A U A A A ",
"l l l 4 # u l l l l l l U ,.; u a a U l a l a a l ; = l l u l l l A ( :.= ( a l l l l l l l u $ 4 A l a A l l l 5.< 3 n n l l l ",
"U A A 4 $ u a U l A U l A ( = 4 U l U l l l U a l > = l A l A l n l A r = A l n A A l U l A u $ 4 l l l l l U l [ , 3 l A l a V ",
"= > , &   = = > - > > - - = . % > > - - > = , = > + X - > - > = ; = > # X - > ; > > - - = > = . # = > > - = > - = o # = > > = > "
};
