/* XPM */
static char *_4205a112c634879e996f4a1618d61edeAp0aDiDLlQQrxa3[] = {
/* columns rows colors chars-per-pixel */
"64 64 165 2 ",
"   c #082B27",
".  c #0C262B",
"X  c #072F2E",
"o  c #0E2D2E",
"O  c #122927",
"+  c #14272C",
"@  c #1D252C",
"#  c #122C2E",
"$  c #192A2D",
"%  c #06322E",
"&  c #0B312D",
"*  c #12302E",
"=  c #062D34",
"-  c #0E2E31",
";  c #072F39",
":  c #0D2E3A",
">  c #132531",
",  c #1B2631",
"<  c #112D31",
"1  c #1A2C33",
"2  c #132E3A",
"3  c #192C3A",
"4  c #043435",
"5  c #0C3233",
"6  c #033935",
"7  c #0C3B35",
"8  c #04343A",
"9  c #0C343A",
"0  c #053A3C",
"q  c #0B3B3D",
"w  c #133235",
"e  c #1B3135",
"r  c #103837",
"t  c #183837",
"y  c #13343B",
"u  c #1A363C",
"i  c #143A3D",
"p  c #193A3D",
"a  c #202A34",
"s  c #20343B",
"d  c #05403E",
"f  c #0A403D",
"g  c #11443F",
"h  c #063743",
"j  c #0B3642",
"k  c #053B41",
"l  c #0C3D42",
"z  c #063B49",
"x  c #0D3D49",
"c  c #143544",
"v  c #1B3442",
"b  c #143D43",
"n  c #193D44",
"m  c #143E4A",
"M  c #1B3E4A",
"N  c #213C44",
"B  c #223C4B",
"V  c #054143",
"C  c #0D4244",
"Z  c #094946",
"A  c #0D454B",
"S  c #054A4C",
"D  c #0D4A4C",
"F  c #134245",
"G  c #1F4047",
"H  c #184447",
"J  c #1A4145",
"K  c #124A46",
"L  c #1C4A46",
"P  c #114249",
"I  c #14404B",
"U  c #114448",
"Y  c #104549",
"T  c #104648",
"R  c #114749",
"E  c #10454B",
"W  c #14474B",
"Q  c #16464A",
"!  c #174749",
"~  c #10404C",
"^  c #11434C",
"/  c #14434D",
"(  c #12444D",
")  c #12444F",
"_  c #11464E",
"`  c #10474E",
"'  c #14444A",
"]  c #1C4348",
"[  c #1D464A",
"{  c #1A434A",
"}  c #11494A",
"|  c #154B4B",
" . c #114B4C",
".. c #134A4D",
"X. c #174A4E",
"o. c #134A4D",
"O. c #1E494F",
"+. c #19494D",
"@. c #08504D",
"#. c #09514E",
"$. c #08504F",
"%. c #0B514F",
"&. c #09514E",
"*. c #0C4550",
"=. c #0D4552",
"-. c #0F4551",
";. c #0C4654",
":. c #0D4451",
">. c #094A50",
",. c #0E4853",
"<. c #0B4F52",
"1. c #0E4A54",
"2. c #0C4C56",
"3. c #0C4C52",
"4. c #0B4D5B",
"5. c #0B4D59",
"6. c #0C4C58",
"7. c #0D4E59",
"8. c #124250",
"9. c #124351",
"0. c #134550",
"q. c #114751",
"w. c #134451",
"e. c #184153",
"r. c #194756",
"t. c #114E53",
"y. c #124854",
"u. c #104F54",
"i. c #124B52",
"p. c #184C57",
"a. c #1A4B51",
"s. c #134E5B",
"d. c #025251",
"f. c #055451",
"g. c #055554",
"h. c #055355",
"j. c #0A5251",
"k. c #0B5153",
"l. c #0C5051",
"z. c #0C5354",
"x. c #075957",
"c. c #065459",
"v. c #0F525B",
"b. c #09515F",
"n. c #0C535A",
"m. c #055959",
"M. c #05595C",
"N. c #0C5858",
"B. c #0F5958",
"V. c #0C5A5C",
"C. c #125357",
"Z. c #125657",
"A. c #125153",
"S. c #11515A",
"D. c #12535B",
"F. c #1A575F",
"G. c #125A5F",
"H. c #22434B",
"J. c #075762",
"K. c #0B5662",
"L. c #045E67",
"P. c #0C5D60",
"I. c #135461",
"U. c #125862",
"Y. c #036067",
/* pixels */
"2 C A e.8.A C C n n F / ( -.-.;.D A I u # # i U 0.( ~ P F F F F F U A A A A A A m t 1 1 n 8.A 0.A A b l F F U ( -.A >.D U b N < ",
"n Z.x.N.g.%.F b C C C D D D <.k. . .X.H 5 9 D v.g.f.%.D U F n n ,.1.7.5.5.5.2.2.| i 4 C N.M.d.%.D U F J J F } D u.l.k.%.D C | 0 ",
"( u.l : - < 2 - + + + + < < < < % 9 l ' q 0 S.b.2 2 < < - o o o $ $ # # # # # # [ F 4 D C.V 9 > 2 < < o o o < < 1 < < < 2 y G y ",
"y.t.q < o < 1 < < # # # o o o o # o - ] l 0 p.z < < < < < < # < # # o o o o & & i F 4 D ( = > @ 5 < # + + # # o < o o - 5 9 ' k ",
"~ A 4 & % & # o # # # # o # # # e < o J q 8 O.5 4 % & o o o # $ > < < < : : - - t H 8 ( F 4 5 & o o # $ $ # # o * o o o o - F 0 ",
"/ n + @ # $ + 5 < # # # < < < < o o o F 0 4 L & $ $ + + # # # o $ $ # # # # # # r [ 8 ] n # o   $ + # # # # $ $ o o o o < 5 { l ",
"F n + + & # + o # # # < < < # # o o w H l 8 H & # # # # # # # # # # # # # # # # q C 8 F p $ + # & & # # # # & & < < < # < < G q ",
"g n + # X < + o # o o # # o o o # # < n l j ] w # # # # # # # # o o o o o o - o t H 8 F t $ O < 1 > < o o # # # < - - - o 5 H l ",
"n n # # # < & # # # < - - - o o - o w U 7 9 ' * # # # # # # # # - - - - - - - - l C 4 b p # # $ # # # o - - - - < < < # - 5 ] q ",
"( U o o # # - # # # < - - - o o - * w / q 8 i.w # # # # # # # # < < < < < < < < b } 8 C n < o # # # # o - - - - - - - o - 5 { l ",
">.D - o < + o # # # < < - < o o - * y i.l k u.i # # # # # # o # < < < < o o o o I D 8 A U - - # # # # # - - < < - - - - 5 5 X.k ",
">.D - < < + o # # o < < < < o o - # e / l k 7.i # # # # # o o o < < < # # # # o n A 8 D U - - # o # # # < < < < o - o o - 5 { k ",
"( ' < < < + o # < < o # # # < - < # < ' q 0 t.5 # # # # o o o o < < < # # # o o c F 8 D R o o $ < < < < # # # # # < # # # w { q ",
"m H + + < > 5 - # # o # # # # # < # < I q 9  .w # # # < < o o o < < # # # # # # p F 4 R F o o $ < < < < # # # # # < # # # w H q ",
"n F # # # > - o o # # # # o # # < # < ' q 9 / < # # < < < < # # < o # # # # # # i R 9 F i # o $ - - - < o # # # # # # # < w { q ",
"b F o o o < - # o # # # # # # # - & w ' q 9 / e # < < - - < < # o o o o o < - - c U 9 b b < 5 # - - - - o # # # o o o o < w { l ",
"g p # o o # # o $ O # o & 5 5 o % o 8 t.V 4 K e # # # # * # # # > > < < < - < < *.t.4 C n o o   # # + + + # # o < >   e o 4 A.l ",
"F n 2 o < 1 $ o w w < < < < < < 1 > j t.l q [ 1 < < < < < < < < 5 5 5 o o - < < ;.0.8 n v > > 1 o o - - - - 5 5 4 5 o w 1 l C.h ",
"~ { c - - < < o # # # # o o - 5 2 9 i.D.k 8 } l 5 < # # # # < w & o o o - 5 w y V.D 8 F ] c 9 - < > < < < < < < + # - 4 0 S z.x ",
"c X.A.j.%.D F b F H H I I U  . .k.f.G.t.9 5 ' A.z.<. .' n n n n B B { { i.z.M.M.D.C - i  .z.z.D J J F F F F H H ] a.S.v.v.D.y.c ",
"- q C C x q l l l l l l c l l x C V l 9 1 1 9 V x x l c c q q 0 0 q q l l l l x q w 1 e q V C l q q q q q q l l l k C x x C 5 $ ",
"# 5 4 ; : ; 8 8 4 4 4 4 4 4 4 8 : 8 4 - e e - 8 8 9 5 5 9 6 6 6 4 4 4 8 4 8 4 4 5 e e 2 9 8 8 - 8 8 9 5 9 9 9 0 9 4 4 4 4 4 & * ",
"u } d.g.B.A.X.J { / / t.z.v.n.n.A.f.D F 5 w v r.M.c.z.<. .I ] n y.u.7.v.v.D.s.u.N s < 9 t.z.z.z.D } F H F '  .t.I.J.K.D.n.>.m 3 ",
"P S.v.:.m l q 7 e w 9 q l b b b x l ] H.9 4 2.Y.m b b q q w w w i i l l C C l q | C 4 C F.y.A h l q y y y y l x l V q p l R { q ",
",.t.9 - 5 < o # # # # + + + # # 5 o 2 { l h B.C < < < # # # # # $ # # o o o < < b F 8 <.D : - < < - o # # o o $ # # o o < w { 0 ",
"A  .- o - < o # # # # # # # # o - o < F q 0 <.l < < < # # # # # # # # o o o < < p F 8 D U - - < - < + o o + + o # # o o < w H q ",
"P F o < # + - # # # # # o # o o o < < F q 8 D y < < # # # # # # # # # o o o < < t F 4 F F - 5 + < < o # # # # # o o # o o 5 H q ",
"I F # < # # - # < < < < < - - - o # < F q 9 F e # # # # # # # # # # # o o o < < u R 4 n p o & $ < - o # # o o # o < < o # < H q ",
"H b + < # + - # < < < # # < < < # < < F l 9 F 1 # # # # # # # # < < < < < < o o p K 4 n p o & $ o # < - - < < - o < < o o < H q ",
"F F # # # + - # < < # # # # < < < < < R l 9 R < # # # # # # < < - < < < < < o o i C 4 b p o o $ o # < < < < < < < < - o o 5 ] q ",
"C R # o < + o # < < o o o o < < - o < U l 0  .w # # # # # < < < - - < < < < o o b R 4 C F < - # + o - < < 5 - < < < - o - w { l ",
"A X.< o < > o # - - - o o - - < - o w X.l h A.y # # # # # < < < - - < < < < o o F U 8 Z C < < o o # < - - < < - < < o o 5 9 { k ",
"1.X.5 # # # # # < o o o o - - - o O y <.l 0 V.q o # # # # # o - o - - - - - - o C U 8 i.D 4 o + # # # o o # < < % + - % < 9 D l ",
"-.' - # # # # # < o o o o < < < < O w A q 0 S.y # # # # # < < < # # < < < < # # b F 8 ( U 4 o # # # # o o # < < 5 + # o + 5 } q ",
"A I o # # # o o o o o # # < < < < o 2 I q 9 i.y # # o - < < < < # # # # # # # # p F 4 F n - < # < < < < < # # # < # # # # < H q ",
"F H o # < < - o o o # # # < < < # & 2 M q 9 ] w # < < - - - < < # # # < < # # # u F 8 F n + < o - - < - # # # # # o # + o 5 ] q ",
"b n o # < < - o o o # < < < < < o & < { q 9 I w # < < - - - < < o < < < < < < o b ' 6 C p < < o < < < < # # # # o o # # o 5 { q ",
"n J o # < < < o o o o < < < < < - & 9 i.0 4 ' w # # - < < < < < - - - - - - - - C U 4 F p # < o < < < < < # o o 5 < # - - 9 X.0 ",
"n J o # < # # # o o o < < < < o < o 9 S.0 8  .e # # # # # < < < o o - - - - o o A i.8 b i o < # # # # # # o - - 5 > < o < i t.k ",
"F J o # < # # # # o o < < - - o - # q G.l 0 i.1 o # # # # # o - o o o < < o o o 2.u.0 F p o # + # # # # # o 5 5 o $ < X > c C.l ",
"B A D b 9 w e w w r w w e t i f l m K.I.l 4 '  .b p i w w e e y 5 5 5 9 q x A D L.A 5 J { P b 7 y y w w w y t t e y l l S N.k.q ",
"v A B.B.z.D I { ] ] I I I / i.<.z.g.h.m 5 5 N u.c.h.<.D ' I { { { { r.r.y.s.s.D./ t o 7 S 5.D.v.F F F F F F F R D <.S.s.s.s.m 3 ",
"# 4 4 - : ; 4 6 4 4 4 8 8 8 0 0 0 9 8 - e w - 0 j 9 9 8 4 4 6 6 & 4 4 4 4 4 4 4 9 e e 5 0 0 9 = 8 8 8 9 9 8 8 8 5 4 4 8 4 4 5 w ",
"# q d l A C q q q q f C l C x x C c l 5 e e 9 c C C l q q q q q c x x A A l x x j 3 1 y i l l C l l q y i l l C l C C C l q w * ",
"c D.V.n.c.<.{ M F P A D <.h.g.c.A.D a.G 5 9  .P.n.n.2.i./ ] M n 1.2.5.n.b.v.7.7.L r - l C.D.v.n. .} ' F F ' X.X.h.n.n.n.z.X.I q ",
"*.D.x 2 : = 5 5 , , 1 1 < 9 : 2 9 4 b { 0 0 c.h.q 9 9 5 < < - < $ # # w w w < < K C 8 S B.A 9 = 9 5 5 - - - 5 5 2 3 : - : v H.q ",
"A D 4 # w & # o & o # # o o O O < - 5 C l c t.c o o o o o # # # O O # o o o - - b M 8 A  .5 # # < < < + + + + + # # o 5 o e ] 6 ",
"m ( = # w   + 1 5 # + + # # # # + 4 < J l 9  .0 < < < < < < < o < + < < < - - - 7 J 4 P ' = < - # # o o # # # # o # # 5 X 2 H.0 ",
"F F # o * + o < # # # < < < - - o * < F q 8 U w # # # # # # o o < < < < < < < < c F 4 C b < < + # # # # < < < < - - o o o 5 H 7 ",
"n F o + # # o 1 # # # < < < - - < & < n f 9 { w # # # # # # o o < < < < < < < < i F 5 F i # < + # # # # < < < < < < # # < w H q ",
"n b + # # + < < # # # < < < < < 1 & < n f 9 ] w # # # # # # # o < < < < < < < < i F 5 F p + o + # # # # < < < < < < # # < w { q ",
"C n + o * $ # < & & # < < < < < < & < I q 9 / # # # # # # # # # - - - - - - - - i F 5 F i # o # # # o o < < < < < < # # o 5 F 0 ",
"I A - # # # & # o o o < < < < < 5 # w D q 8 ,.w # # # # # # # # - - - - - - - - b A 8 P F < - # # # o o < < < < < - o o - 5 ' k ",
"A } - o # # & # # # # < - < < < 4 $ w D q 0 c.t # # # # # # # # < < < < < < < < I D 8 A / : 5 # # # # # < < < < o - o - 5 9 X.V ",
">./ < & o $ # o # # # < < < < < - $ w  .q k n.i # # # # # # # # < < < < < < < < n ( 8 D U - o $ # # # # < < < < o < o o < y { l ",
"0.D - # $ $ o + # # # < < < < < < O < / q h v.9 # # # # # # # # < < < < < < < < i C 8 D U - o $ # # # # < < < < < < < # < < ] l ",
"I p # # < - < # # # # o o # # # < + * F 8 0 [ 1 # # # < o # # # # # # # # # # # p F 8 ' p $ # < - - - # # # # # # * o o 1 y C q ",
"P i & o 5 5 5 & < < < < < # # # 5 # & F x k F # o o 5 5 5 & 5 & # # o o o < < < i R 8 R r # < 5 - - - o o o # # + < & 5 1 5 F y ",
"n p + $ + o # o o o o # o o o o o # - I b 0 F e + > # > > > > > w < < < < + + 1 i ' 4 F p # > o < < < < < < < < - < o $ @ o | q ",
"F i - o # o o o o o # # # # o o * e 9 t.x 8 F w o o # # # o o o # o o - 5 5 4 4 Z D 4 F p o e < # # # # # o o o o - % 5 5 4 l.0 ",
"F F 5 - < # # # # # # < < < < w + . 8 A.A 9 [ < w * # # # # # # o < < < < # # o ;.,.8 H p . # $ # # # # # # # # # 1 o o - l F.z ",
"i n q : < + + + o o o o - - - 5 - 9 A Z.l 4 O.n 5 - # # # # # o 5 5 - o - < < < U.,.8 b { 5 5 * o o o o o o o - o # - - : A S.h ",
"F a.t.i.| F J F b J J n b F ' ' D z.V.c.0 4 Z A.D } U F F F F F n n F R D k.c.x.n.V 4 q A.z.D D b b b b b b b b i F A.z.Z.N.l.q ",
"- b -.,.A l b F F F F b F C A D -.w.~ y a 1 9 ~ ,.A P b n b b b F b F m ~ ~ 8.:.b e 1 1 b 8.A w.F F F F F F F I ' m y.A 8.A q + "
};
