/* XPM */
static char *_c7d960d65c7407cc30703322588022eAuiGXwO1RsG6wqlS[] = {
/* columns rows colors chars-per-pixel */
"64 64 132 2 ",
"   c #0B151E",
".  c #0D181D",
"X  c #0F1921",
"o  c #121C25",
"O  c #151F29",
"+  c #162126",
"@  c #172129",
"#  c #1A252C",
"$  c #1E292E",
"%  c #1D2730",
"&  c #1F2931",
"*  c #202B2F",
"=  c #222C34",
"-  c #252F39",
";  c #263136",
":  c #293337",
">  c #27313A",
",  c #2A343C",
"<  c #2E393E",
"1  c #313C3F",
"2  c #2D3641",
"3  c #2F3942",
"4  c #323C44",
"5  c #353E49",
"6  c #364146",
"7  c #384347",
"8  c #374248",
"9  c #36404A",
"0  c #37414A",
"q  c #37414B",
"w  c #364049",
"e  c #36404C",
"r  c #37414D",
"t  c #37414A",
"y  c #384349",
"u  c #38424B",
"i  c #394448",
"p  c #3A4549",
"a  c #39444A",
"s  c #3A454B",
"d  c #3B464A",
"f  c #3C4749",
"g  c #3C474B",
"h  c #38424C",
"j  c #39434C",
"k  c #39434D",
"l  c #39434F",
"z  c #3A444D",
"x  c #3B464C",
"c  c #3A444E",
"v  c #3B454E",
"b  c #3B454F",
"n  c #3C474D",
"m  c #3C464F",
"M  c #3A454C",
"N  c #3D484A",
"B  c #3D484C",
"V  c #3E494D",
"C  c #3D484E",
"Z  c #3E494F",
"A  c #3E494E",
"S  c #3A4450",
"D  c #3B4551",
"F  c #3C4650",
"G  c #3D4750",
"H  c #3D4751",
"J  c #3C4652",
"K  c #3D4753",
"L  c #3C4651",
"P  c #3E4851",
"I  c #3F4A50",
"U  c #3E4852",
"Y  c #3F4952",
"T  c #3F4953",
"R  c #3E4854",
"E  c #3F4955",
"W  c #3F4952",
"Q  c #404B4F",
"!  c #404B51",
"~  c #404A53",
"^  c #414C52",
"/  c #424D53",
"(  c #404A54",
")  c #414B54",
"_  c #414B55",
"`  c #404A56",
"'  c #414B57",
"]  c #424C55",
"[  c #434E54",
"{  c #424C56",
"}  c #434D56",
"|  c #434D57",
" . c #444F55",
".. c #444E57",
"X. c #424C54",
"o. c #404958",
"O. c #414A59",
"+. c #424C58",
"@. c #434D59",
"#. c #444E58",
"$. c #454F58",
"%. c #454F59",
"&. c #444E5A",
"*. c #444E58",
"=. c #455056",
"-. c #465157",
";. c #455055",
":. c #465059",
">. c #46505A",
",. c #47515A",
"<. c #47515B",
"1. c #46505C",
"2. c #47515D",
"3. c #46505A",
"4. c #48525B",
"5. c #48525C",
"6. c #49535C",
"7. c #49535D",
"8. c #48525E",
"9. c #4A545D",
"0. c #4A545E",
"q. c #4B555E",
"w. c #4B555F",
"e. c #4C565F",
"r. c #49525C",
"t. c #4D5761",
"y. c #4B5560",
"u. c #4E5862",
"i. c #4E5864",
"p. c #4F5965",
"a. c #545E68",
"s. c #56606C",
/* pixels */
"z 9.e.$.t.t.F 2 s.P = 5 4 4 6 1 5 m ; < > = 4.6.9.6.6.9.3 6.u.= < 1 6 4 4 4 V 4 : < = ! 9.9.9.6.9.z e s.4 : 6 1 4 6 3 0 m = 6 ; ",
"4 0 z z F z 4 , @.0 > V V 7 s s m 4 5 y 4 = z m z ! 0 5 = F $.- N 7 s 6 s P 4 4 7 6 & 4 z z z m m - 4 6.4 4 6 f i 4 V P 2 5 7 : ",
"2 F 5 , , - - z 2.z , s z 0 z ! 4 , m y 4 = y < > 3 , < 4 _ } > 6 s V V z P , 5 s 0 $ < 4 3 , , > , F F 2 5 V s s V ..= 4 ! s : ",
", 2 3 5 5 m P m S 0 2 0 V z z V 0 2 3 z 6 o 5 5 z 5 5 5 P z } , s V 6 m F P 4 < s s = : 4 5 5 0 s F m <.0 , z m 7 V ! 0 , 5 m : ",
"o 3 4 , , 3 = > - , = - : < > , 4 4 = : = . = < , - , 3 = = 3 $ > > < , - 2 3 2 = ; @ $ > < , , ; , % , = = , , 3 = > 5 2 = > = ",
"= = = % o , , # k 5 # @ = 3 & & # 2 2 = & ; = = = % % 4 # 4 z > o # 0 , @ = - 4 = = $ = ; ; $ o 0 = = F 4 # o , 4 # = @ 4 , = $ ",
"6 V s 4 $ > 3 4 2.} > 3 z 6.3 3 - 3 k P z z 6 s s ; # 4 , P 2.5 < 4 ..z > 4 - 4 ..P s 6 6 6 < $ , , z $.z 3 3 F } > e , 2 ! V 4 ",
"f 6 7 s # , k E z _ , y z } , 4 2 0 0 P 0 5 ^ 0 V = $ k P F _ 3 4 V m m , 4 , P P y s s f f 4 @ 5 S P P k , m z $.> 0 - E m s 4 ",
"0 V s 6 $ s V f z m , 0 k } < 5 6 1 y F y s y V V = : P s z } 4 < P y z , z , s z k z s z m < & V V z s } = F z $.= s 4 4 s m 6 ",
"0 0 4 4 $ > : 1 y 4 = 2 4 0 - , 5 5 0 5 5 0 6 4 4 = = 4 4 4 4 = 2 3 y 4 = 4 k 4 4 5 4 4 6 6 : # : 4 4 6 = , , 2 0 = 3 0 4 s 4 , ",
"@ $ $ = @ # # * #   @ < - , > - , , , , , O # $ $ # o # $ # @ o = , = - = , , > , 2 % @ & & $ + # # # # X = , > , = > , > , - = ",
"$ 3 5 4 6 6 5 3 > # 4 <.P z _ <.P } } $.6.& : 6 4 6 5 y 4 - & $ $...0 $.} $.} } } <.< ; 4 4 6 6 5 0 < = $ 4 e.4 E $.<.P ..} 6.6.",
"; z V y m s 6 > 4 = , 0 z 4 2 5 , 0 k k } = 6 V s s s s 4 < < = y m 2 - k , 4 z z $.3 : y s m z y 6 : 5 $ 3 P 0 2 4 4 4 z 5 z _ ",
": s y y z 0 y 4 =.- , m z z 5 > ! } F z ..= 3 6 s s y 5 3 k k = P k _ z , 4 <.m 0 ! 3 : s z s y z 3 4 ! = 4 5 ^ z 4 , P ! P m 4.",
"= 4 4 y 6 6 V m z $ > z 6 z 5 = m 6 4 y } = < s 6 y s m s z 4 @ 4 0 z y = 5 s 0 z F 4 > 4 s 6 6 s s ..4 $ 4 y 5 z < > s 6 y 5 P ",
". = * = # $ ; = $ $ # $ = & o $ $ = = = > o # & & $ $ = = & $ @ = $ = # o $ = = = = # o $ = $ $ = = & = o @ = = % o $ = & = ; ; ",
"% 5 _ P - 4 _ _ _ F } _ P } = 5 _ _ } F @.2 - @.<., , _ _ _ O.O._ P $.3 - _ P _ E _ S = E _ k & S _ @.E _ _ _ E E & z P _ P } 5 ",
"= _ P y $ 5 m m P z F z m <., e m ! k F ! < 0 } 6 ; > z z m m m k P P S 2 F P z F F 5 > P P 0 = k z y m z z y P 2.> 0 z P k } 4 ",
"< =.s 4 $ 6 7 0 k k s 0 k $.2 4 6 f s y 4 ; m ^ s : : V s s 7 s 0 m z P > y z y V 4 < 5 =.z < $ s s 7 s s s 6 f $.- 0 k z 5 0 , ",
"P =.7 6 = 4 s V s V P ! m _ , 4 ^ s s 4 y m _ F s = = s V f s V ^ s ! s > m s V 4 5 4 ! } z < & 6 s P s V m V s _ = z m F y 4 4 ",
"3 3 < ; o $ 2 , 4 < > < : > @ = 2 , = = 4 4 5 3 2 % # , , 3 3 , < ; < * # : < , % 5 4 5 , 2 - o , , 2 4 , < < : , o = , : = ; : ",
"2 4 0 5 2 4 5 = 0 > @ = = = # = = , # % = @ 4 4 5 4 4 3 = 3 3 % $ = * $ * = , % o = # , 4 0 0 4 4 > - S % = & ; $ $ $ > ; o = # ",
"4 F P } ..} 0 - t.F , y s z 0 F V s , 4 3 = _ P P _ ..z , @.2.> 6 s 6 s V y z 4 z 5 $ 0 ..! F P } 4 5 i.2 4 4 6 6 m s z 0 < 6 : ",
", V 5 y 6 4 > 4 @.k , z s s y V 6 < 7 Q < & 0 s 0 5 6 3 = _ <.- s s 7 s s z 3 5 6 s $ < s 6 6 0 5 = 5 <.4 3 Q i f s ^ 2 3 m 6 < ",
"4 3 , - , = 5 P P k = V y y V P 4 3 0 z : = 0 , , - , , P z 4.= 0 s s s z ! > 5 m m = , 3 > - > > k P } 4 2 } y s y $.2 , P 6 : ",
"# 4 m z m F P < 5 0 , y 0 s 5 y F 2 > y < + , k z m k z z 4 k - 0 z 5 y s k 5 3 3 , @ = 0 z P m F y 4 0 , , 5 0 4 z 5 S 0 - s : ",
"# = = % o @ = # > - o o $ > O # % , = $ # + % = @ # @ = @ # > % o O > & @ = = > $ = # # $ # $ + = @ # , - # @ % > @ # = > @ & + ",
"< 4 < , & 0 k > <.<.> > 4 $., 3 & 0 0 0 4 6 4 4 6 $ ; F = z a.5 = < } 5 = , , k 6 4 3 4 6 4 < + P , 3 6.} = = z ..& 4 = 5 P 4 : ",
"f s s z @ % 2 F z $.- 5 0 $., 4 , 4 0 P s s s s s = o > k } F > 3 } F P , 2 , 0 ..V z 0 z y 1 + = 4 F P F 2 m y $., 0 - 4 P V 4 ",
"6 z m 4 & y _ F z _ > z z } 2 4 3 5 z m 6 m P s z = < ..z 0 ..k < z 0 z , k 2 z 0 y m s s s 4 $ ! _ F P z = z V } , 0 < 4 s z 4 ",
"V s s 4 & < 6 z P 6 : 0 0 P < 3 s 6 s m V y y s V = = k z z k , 4 6 P k > P 4 V m z y z m P < # 4 0 y P 4 2 y 4 } > k 0 k V s 4 ",
"= = > = o $ $ $ = + $ = = > # & : > > = > = = ; = % @ % $ = $ @ $ = = = o > , = - > > = = ; $ + $ $ $ ; o $ = = - O = , - = > $ ",
"# : : : ; ; ; ; = o - _ S e @.E P F O.O.S # = : : : ; : < = $ + S S J O.J S @.F E $.& $ > < > , : > , & o 2 $.e F _ F F P E J J ",
"= 6 7 6 f ^ m 4 > = , P F 4 5 F 3 5 k P <.= 4 6 7 s Q s 4 > : & P _ 2 3 _ 0 4 P k 6.3 : 6 s 7 s 6 6 < > # 0 } 3 4 0 z 5 z z <.<.",
"; s V 0 6 6 4 = s : : s V 5 : : s ! z z <.& 6 i f 7 s 5 < 4 0 = 6 V y < , 4 s 7 0 ^ < : i N i s f < ; V ; < 6 ^ 4 > < 0 ! 0 s P ",
"= 4 s V V z P P Q ; ; s V ^ 0 : m ! k 0 } = 4 s V s s F F P 0 # s 6 } ..> 4 =.V m V < > s s 6 s 5 $.P s $ 4 V s $.4 2 ^ V V m 6.",
"$ = : < > - , < > @ # > - , & # - , , 2 4 % # , > > > < 3 , = o ; - > - @ = , > , 4 > # , , , , , 2 , , # % - > > % - 2 = , 2 4 ",
"o > 2 , % > 4 3 3 4 2 3 3 2 # - 3 3 4 4 3 = # 2 < > % , 4 3 2 4 2 5 3 = # 4 4 2 , 4 2 O , 3 , # 2 2 3 3 3 2 4 4 - O 2 3 4 2 4 , ",
"= _ $.F = 0 ^ ! P } P P } <.2 k ..} _ ! P 4 0 2.P 4 : ^ =.^ V ! =.P P P 2 m ! ..^ } F , $.<.z = z _ } _ } F _ ! y.> z m <.V } z ",
"- E z 5 # 5 m y z y s V k } 3 4 s s s s m > 0 P s = = V m y m y 6 z V k > V s 7 f 6 6 > } s 3 $ 6 f s 7 s s s y } > s s s s s < ",
"z } y 0 $ 5 m 7 m s z 6 z <.> 5 0 m z 5 < > t.z s = = V 6 m s s k k F F , k F y F 3 > F } 6 4 $ 7 z s z y y V y $., 5 m z z 4 = ",
"F z k 0 O = z 0 0 6 y s y m = 2 s V 3 , } } z 0 6 = = 4 0 0 5 y s y k , = 5 0 s = P P m z z 4 o < z 0 k k y 6 y 0 % 5 0 0 4 5 0 ",
"= < > = = = = = , = # = $ $ o @ # = O o # % = , = % $ = = > - $ $ $ = O o $ = $ o = @ = > = & # = = % , & $ $ = # o @ > # o @ = ",
"0 ! ! } } <.F , 6.0 = 4 3 4 < 4 y 0 > < > = _ _ ..<.} $.- _ _ = < 3 3 6 3 4 s : = < $ 0 ..<.} } <.4 5 y.2 , 4 < 4 4 5 4 6 = < = ",
"2 F m } z k 2 - y.z > m s s z z 0 4 4 y 4 & P k k m 0 0 & } 6.- 7 s 6 V s m 4 5 s 0 = 4 5 z F F 0 > 5 i.4 4 V 6 0 ^ z 0 4 V 7 : ",
"< z > = > > > _ E k , V s y m V 5 > P ^ < $ 0 4 > , > > 4 F _ > s z s 6 s _ & 0 m 4 $ 4 4 , > > - 3 0 _ 2 3 s m s y $.> 3 z s < ",
", 4 0 F z s V s F z 2 m s s V ! S , 5 z : = 4 3 k k y y } m P , k z V s z } 2 5 s s = > 5 y z k m } _ P 4 4 s m V m P 0 3 0 6 < ",
"o , < % ; = ; $ - > # > ; : - = , 5 $ = ; o & 3 = = - > % & 2 @ > = ; , = > e = & > o @ , - = = ; # & , = % > ; ; > = 3 3 # : # ",
"; ; ; = O 4 3 % k P & X > F # = % 3 4 > ; = : = > + - S % 5 F 3 o # e 2 O - - 5 > ; : ; ; : = O S = - P k # @ , 0 # = # 4 4 = = ",
"s 6 V s @ = , 5 $._ , 5 z $.2 4 - 3 y z s 7 s s 7 ; # < 3 @.@.2 6 6 } m , 4 - 5 ^ z s s s z < # = 4 k } 0 < y m $., 4 = 5 F m 4 ",
"V 0 s 6 & 4 P _ k m > z k } 4 3 4 4 z P z s 6 7 s : = k P z _ 4 : 6 V z , 4 , P P s 0 s s V 4 $ k z P } P = m m } , 0 2 0 ! ! 4 ",
"y m V 4 $ 4 ^ s F } , 4 z } 2 4 4 5 z z 0 V z s f = = ^ P k P 4 6 V ! s > y 4 0 z z s z s 0 3 $ z y y m s : m 0 } > 5 4 0 y m 4 ",
"4 4 5 3 # = , : 4 > = , 4 4 % , 4 4 5 5 4 4 4 5 1 * $ < > 5 3 = - , < 2 = 4 5 4 4 0 4 4 4 3 : # < < < 6 = > , , 0 & 2 4 4 4 4 < ",
"# # # $ # $ = $ #   = , , < > < 3 2 2 3 < o @ $ $ $ # $ # $ o o , , , 4 > , 3 2 , 2 # @ & = = # # @ $ @ o & 3 < , = 3 < 3 < < > ",
"= 6 0 5 5 6 y 3 > % 4 } z P _ _ m _ _ } 6.= < y 0 6 4 6 6 < = & $._ 5 z <._ } P <.9.3 ; 4 5 6 6 s s 5 & & 4 6.4 _ } } s ! ..4.6.",
"= s s y V s 4 ; 5 > = _ k , , 0 , z z k $.= 4 z z s m s < ; 4 % 5 } 4 > 0 < 4 k e $.3 : m z s z s 5 & k = 3 z z > 4 4 < s z m ..",
"; N s s V k 4 k } = : V z F F = ^ ^ y k 4.$ 4 s 0 m y 5 5 P 4 & 0 m z $.= 5 <.z s ! 4 < 6 s 6 s y 5 s ^ $ 4 V s } 4 > ^ ..m z ..",
"$ 4 6 6 6 5 z F 5 = = 4 4 5 < - 6 5 0 4 F = 4 4 0 0 0 z y z < $ 4 5 4 0 = 3 z 5 5 ^ > = 0 m < 7 s s 6 6 $ < 6 y 0 , < y 4 4 y ! ",
"o & = = @ & > & = % $ = = = X % = = > = , O o = = # @ = = = # @ = = = # o & = = & , & X $ = = # % - = & @ % % = & X % = = = - = ",
"% z ..! ; 5 } ..! } } _ } $.- 0 _ } } P <.4 , <.} 4 3 ! ! } } <.^ } ..5 , } } P $._ z = ! _ } & z } ..} $.$.} } _ - z ! } } _ z ",
"- $.F 0 $ 0 y 0 k z P z z <.> 4 z P z F z , 4 <.0 > > z z z z z V z } z = P F m k F z - $.0 4 & k z z 0 k k z k $.- z z m m z 5 ",
"> $.z 6 # 5 z ! z 0 m 0 y <.3 4 y y 0 k 2 , $.F y > > m z m z 0 z 5 m _ - z 0 s k 4 , 4 $.P 3 # z k z k y k m z $.> z 6 y s 5 > ",
"..<.s 0 = 4 z 0 V y V y z P , 4 f f y 0 0 0 4.y z = = k y z m z m z z k , m z z 4 4 y $.z z 5 = 4 s s z z m s z P - 0 z m s 5 , ",
"4 : < < o # 4 2 < : < , 4 , O & : < = & 0 3 3 < 4 @ @ 3 < 2 3 < : 4 , # @ 2 3 > $ 4 4 3 < < = X ; 4 , < < < > 3 > o = 4 : = > 4 "
};
